<svg xmlns="http://www.w3.org/2000/svg" width="1277" height="1276" viewBox="0 0 1277 1276">
  <defs>
    <radialGradient id="a" r="51.271%" fx="50%" fy="50%" gradientTransform="matrix(0 1 -.99922 0 1 0)">
      <stop stop-color="#FAE06C" offset="0%"/>
      <stop stop-color="#F05023" offset="100%"/>
    </radialGradient>
  </defs>
  <path fill="url(#a)" d="M720.5,39 C1073.13381,39 1359,324.64233 1359,677 C1359,1029.35767 1073.13381,1315 720.5,1315 C367.866187,1315 82,1029.35767 82,677 C82,324.64233 367.866187,39 720.5,39 Z M720.5,60.8119658 C379.922044,60.8119658 103.82906,336.688746 103.82906,677 C103.82906,1017.31125 379.922044,1293.18803 720.5,1293.18803 C1061.07796,1293.18803 1337.17094,1017.31125 1337.17094,677 C1337.17094,336.688746 1061.07796,60.8119658 720.5,60.8119658 Z M721.5,134 C1022.21905,134 1266,377.557096 1266,678 C1266,978.442904 1022.21905,1222 721.5,1222 C420.780954,1222 177,978.442904 177,678 C177,377.557096 420.780954,134 721.5,134 Z M721.5,155.803607 C432.833821,155.803607 198.823647,389.598896 198.823647,678 C198.823647,966.401104 432.833821,1200.19639 721.5,1200.19639 C1010.16618,1200.19639 1244.17635,966.401104 1244.17635,678 C1244.17635,389.598896 1010.16618,155.803607 721.5,155.803607 Z M718.5,226 C967.30428,226 1169,427.471863 1169,676 C1169,924.528137 967.30428,1126 718.5,1126 C469.69572,1126 268,924.528137 268,676 C268,427.471863 469.69572,226 718.5,226 Z M718.5,247.791768 C481.744354,247.791768 289.815981,439.507123 289.815981,676 C289.815981,912.492877 481.744354,1104.20823 718.5,1104.20823 C955.255646,1104.20823 1147.18402,912.492877 1147.18402,676 C1147.18402,439.507123 955.255646,247.791768 718.5,247.791768 Z M717.5,319 C913.837229,319 1073,478.162771 1073,674.5 C1073,870.837229 913.837229,1030 717.5,1030 C521.162771,1030 362,870.837229 362,674.5 C362,478.162771 521.162771,319 717.5,319 Z M717.5,340.809816 C533.208,340.809816 383.809816,490.208 383.809816,674.5 C383.809816,858.792 533.208,1008.19018 717.5,1008.19018 C901.792,1008.19018 1051.19018,858.792 1051.19018,674.5 C1051.19018,490.208 901.792,340.809816 717.5,340.809816 Z M718,417 C860.489465,417 976,532.286677 976,674.5 C976,816.713323 860.489465,932 718,932 C575.510535,932 460,816.713323 460,674.5 C460,532.286677 575.510535,417 718,417 Z M718,438.822034 C587.585913,438.822034 481.864407,544.338653 481.864407,674.5 C481.864407,804.661347 587.585913,910.177966 718,910.177966 C848.414087,910.177966 954.135593,804.661347 954.135593,674.5 C954.135593,544.338653 848.414087,438.822034 718,438.822034 Z M718,519 C804.156421,519 874,588.843579 874,675 C874,761.156421 804.156421,831 718,831 C631.843579,831 562,761.156421 562,675 C562,588.843579 631.843579,519 718,519 Z M718,540.818182 C643.893428,540.818182 583.818182,600.893428 583.818182,675 C583.818182,749.106572 643.893428,809.181818 718,809.181818 C792.106572,809.181818 852.181818,749.106572 852.181818,675 C852.181818,600.893428 792.106572,540.818182 718,540.818182 Z" transform="translate(-82 -39)"/>
</svg>
